<?xml version="1.0" encoding="UTF-8" standalone="no"?>
<!-- Created with Inkscape (http://www.inkscape.org/) -->

<svg
   xmlns:dc="http://purl.org/dc/elements/1.1/"
   xmlns:cc="http://creativecommons.org/ns#"
   xmlns:rdf="http://www.w3.org/1999/02/22-rdf-syntax-ns#"
   xmlns:svg="http://www.w3.org/2000/svg"
   xmlns="http://www.w3.org/2000/svg"
   xmlns:sodipodi="http://sodipodi.sourceforge.net/DTD/sodipodi-0.dtd"
   xmlns:inkscape="http://www.inkscape.org/namespaces/inkscape"
   id="svg5585"
   version="1.1"
   inkscape:version="0.91 r13725"
   width="25.998646"
   height="25.998646"
   viewBox="0 0 25.998646 25.998646"
   sodipodi:docname="crear_citas.svg">
  <metadata
     id="metadata5591">
    <rdf:RDF>
      <cc:Work
         rdf:about="">
        <dc:format>image/svg+xml</dc:format>
        <dc:type
           rdf:resource="http://purl.org/dc/dcmitype/StillImage" />
        <dc:title></dc:title>
      </cc:Work>
    </rdf:RDF>
  </metadata>
  <defs
     id="defs5589" />
  <sodipodi:namedview
     pagecolor="#ffffff"
     bordercolor="#666666"
     borderopacity="1"
     objecttolerance="10"
     gridtolerance="10"
     guidetolerance="10"
     inkscape:pageopacity="0"
     inkscape:pageshadow="2"
     inkscape:window-width="1301"
     inkscape:window-height="744"
     id="namedview5587"
     showgrid="false"
     inkscape:zoom="22.627417"
     inkscape:cx="12.444192"
     inkscape:cy="12.353077"
     inkscape:window-x="65"
     inkscape:window-y="24"
     inkscape:window-maximized="1"
     inkscape:current-layer="g5619" />
  <g
     inkscape:groupmode="layer"
     id="layer3"
     inkscape:label="Broches"
     style="display:inline" />
  <g
     style="display:inline"
     inkscape:label="Signo"
     id="g5615"
     inkscape:groupmode="layer" />
  <g
     inkscape:groupmode="layer"
     id="g5619"
     inkscape:label="Calendario"
     style="display:inline">
    <path
       style="opacity:1;fill:#ffffff;fill-opacity:1;stroke-width:0;stroke-linecap:butt;stroke-linejoin:round;stroke-miterlimit:7.19999981;stroke-dasharray:none;stroke-dashoffset:0"
       d="M 5.9253345,19.91028 C 4.8378453,19.933718 4.863868,19.484456 4.863868,18.423924 c 0,-0.398011 0.16647,-13.8333149 0.16647,-13.8333149 l 1.3568924,-0.05533 1.3568925,-0.05533 7.15e-4,0.993193 c 0.00101,1.39623 0.071229,1.81608 0.3553041,2.124265 0.2919598,0.316739 0.8551824,0.437857 1.4632073,0.314656 0.4242592,-0.08597 0.5658217,-0.150804 0.7094537,-0.32494 0.280362,-0.339906 0.352619,-0.78247 0.353097,-2.162667 l 3.19e-4,-0.925033 2.609567,0 c 2.457171,0 2.6099,0.004 2.615254,0.06816 0.0031,0.03749 0.0087,0.532625 0.01232,1.100303 0.0051,0.79916 0.0224,1.119836 0.0765,1.420636 0.09399,0.522622 0.106689,0.54797 0.331682,0.661983 0.602714,0.305418 1.437238,0.278732 1.947924,-0.06229 0.200316,-0.133766 0.242388,-0.184079 0.314865,-0.376547 0.174363,-0.463033 0.203535,-0.712403 0.208242,-1.780101 l 0.0045,-1.012668 0.954245,0.0016 c 0.980919,0.0017 1.542068,0.191868 1.542068,0.191868 l 0.210269,0.877575 c 0,0 0.12661,7.8837749 0.09821,9.3282299 -0.01137,0.578389 -0.02915,1.796512 -0.0395,2.706939 l -0.01882,1.655323 c -0.08417,0.320519 -0.380815,0.499678 -0.558661,0.701078 C 15.386723,20.081581 6.669356,19.894245 5.9253345,19.91028 Z M 20.568516,18.413926 c -0.05319,-4.035539 -0.08873,-7.069246 -0.08852,-7.556111 l 2.61e-4,-0.593969 -7.224254,0 -7.2242548,0 -0.017216,0.08764 c -0.01438,0.0732 -0.1049218,7.590119 -0.1020385,8.471357 l 9.239e-4,0.282379 7.3321064,3.9e-5 7.332105,3.9e-5 -0.0091,-0.691391 0,2.2e-5 z"
       id="path5796"
       inkscape:connector-curvature="0"
       sodipodi:nodetypes="sscccssssscscsssssccsccssccscscccsscccccc" />
    <path
       style="opacity:1;fill:#ffffff;stroke-width:0;stroke-linecap:butt;stroke-linejoin:round;stroke-miterlimit:7.19999981;stroke-dasharray:none;stroke-dashoffset:0"
       d="M 8.576163,7.1655688 C 8.4101394,7.1222928 8.3108823,7.0523648 8.2132651,6.9099018 8.1290454,6.7869908 8.1282522,6.7698288 8.1282522,5.0705203 l 0,-1.7153131 0.088411,-0.1323433 c 0.1517209,-0.2271124 0.2883057,-0.268543 0.8853081,-0.268543 0.597002,0 0.733587,0.041431 0.885308,0.268543 l 0.08841,0.1323433 0,1.7022261 c 0,1.7011535 -5.5e-5,1.7023075 -0.08764,1.8309885 -0.177171,0.260318 -0.251155,0.287921 -0.7994264,0.298259 -0.2725908,0.0051 -0.5482005,-0.0044 -0.612466,-0.02111 z"
       id="path5798"
       inkscape:connector-curvature="0" />
    <path
       style="opacity:1;fill:#ffffff;stroke-width:0;stroke-linecap:butt;stroke-linejoin:round;stroke-miterlimit:7.19999981;stroke-dasharray:none;stroke-dashoffset:0"
       d="m 16.614272,7.4897509 c -0.09033,-0.052357 -0.176546,-0.1471605 -0.225168,-0.2475992 -0.07591,-0.1568073 -0.07839,-0.2240587 -0.06784,-1.8394166 0.01068,-1.6349034 0.01299,-1.6793961 0.09292,-1.7865793 0.171421,-0.2298764 0.291699,-0.2657156 0.891751,-0.2657156 0.642432,0 0.75949,0.042855 0.906742,0.3319556 l 0.08882,0.1743784 -0.01092,1.6622561 c -0.01062,1.616823 -0.01315,1.6652603 -0.0924,1.7721692 -0.04481,0.060452 -0.139422,0.1493482 -0.210241,0.1975473 -0.118689,0.080779 -0.171731,0.087565 -0.678022,0.08674 -0.492532,-8.023e-4 -0.564378,-0.00966 -0.695638,-0.085736 z"
       id="path5800"
       inkscape:connector-curvature="0" />
    <path
       style="opacity:1;fill:#ffffff;stroke-width:0;stroke-linecap:butt;stroke-linejoin:round;stroke-miterlimit:7.19999981;stroke-dasharray:none;stroke-dashoffset:0"
       d="m 11.894338,18.226549 c -0.07455,-0.03746 -0.17533,-0.127655 -0.223956,-0.200444 -0.08385,-0.125521 -0.08841,-0.168994 -0.08841,-0.843352 l 0,-0.711009 -0.691341,-0.01352 c -0.758084,-0.01482 -0.861408,-0.04263 -1.0378081,-0.279281 -0.079546,-0.106715 -0.081969,-0.148935 -0.081969,-1.428511 0,-1.279576 0.00242,-1.321796 0.081969,-1.428511 0.1765481,-0.236848 0.2795841,-0.264513 1.0378081,-0.278651 l 0.691341,-0.01289 0,-0.789536 c 0,-0.755997 0.0038,-0.795157 0.08841,-0.921879 0.17501,-0.261973 0.214342,-0.268536 1.609838,-0.268603 1.232578,-6e-5 1.252167,0.0012 1.3791,0.08757 0.282776,0.192456 0.290405,0.220087 0.303655,1.099663 l 0.01193,0.792342 0.812951,0.01311 c 0.902469,0.01455 0.927414,0.02134 1.120355,0.304831 0.08647,0.127049 0.08763,0.145702 0.08763,1.402551 0,1.25685 -0.0012,1.275502 -0.08763,1.402552 -0.192915,0.283451 -0.217988,0.290278 -1.119505,0.304819 l -0.812103,0.0131 -0.01278,0.714446 c -0.01417,0.792101 -0.02617,0.832354 -0.304504,1.021787 -0.126933,0.08639 -0.146522,0.08763 -1.3791,0.08757 -1.112651,-3.9e-5 -1.265264,-0.0076 -1.385882,-0.06816 z"
       id="path5802"
       inkscape:connector-curvature="0" />
  </g>
</svg>
